<?xml version="1.0" encoding="UTF-8" standalone="no"?>
<svg
   viewBox="0 0 640 640"
   version="1.1"
   id="svg1"
   sodipodi:docname="arrow-right-solid-full.svg"
   xml:space="preserve"
   inkscape:version="1.4.2 (2aeb623e1d, 2025-05-12)"
   xmlns:inkscape="http://www.inkscape.org/namespaces/inkscape"
   xmlns:sodipodi="http://sodipodi.sourceforge.net/DTD/sodipodi-0.dtd"
   xmlns="http://www.w3.org/2000/svg"
   xmlns:svg="http://www.w3.org/2000/svg"><defs
     id="defs1" /><sodipodi:namedview
     id="namedview1"
     pagecolor="#505050"
     bordercolor="#ffffff"
     borderopacity="1"
     inkscape:showpageshadow="0"
     inkscape:pageopacity="0"
     inkscape:pagecheckerboard="1"
     inkscape:deskcolor="#505050"
     showguides="true"
     inkscape:zoom="0.62734375"
     inkscape:cx="235.11831"
     inkscape:cy="412.05479"
     inkscape:window-width="1920"
     inkscape:window-height="1011"
     inkscape:window-x="1680"
     inkscape:window-y="32"
     inkscape:window-maximized="1"
     inkscape:current-layer="svg1" /><!--!Font Awesome Free 7.1.0 by @fontawesome - https://fontawesome.com License - https://fontawesome.com/license/free Copyright 2026 Fonticons, Inc.--><path
     d="m 633.85466,477.50681 c 8.19379,-8.19378 8.19379,-21.50052 0,-29.6943 L 528.97407,342.93191 c -8.1938,-8.1938 -21.50054,-8.1938 -29.69433,0 -8.19379,8.19381 -8.19379,21.50051 0,29.69434 l 69.0901,69.09006 H 20.976116 C 9.3737056,441.71631 0,451.09001 0,462.69244 c 0,11.60241 9.3737058,20.97611 20.976116,20.97611 H 568.36984 l -69.0901,69.09009 c -8.19379,8.1938 -8.19379,21.50053 0,29.69432 8.19379,8.19378 21.50053,8.19378 29.69433,0 l 104.88059,-104.8806 z"
     id="path1"
     sodipodi:nodetypes="csssscssscssscc"
     style="stroke-width:0.655503" /><path
     d="m 205.71241,211.39446 c 0,63.1403 51.14079,114.28107 114.28105,114.28107 20.64201,0 39.99837,-5.49979 56.71199,-15.07083 l -51.42648,-61.71176 c -8.07108,-9.71389 -6.78545,-24.14187 2.92845,-32.21298 9.7139,-8.07109 24.14187,-6.78545 32.21297,2.92847 l 50.64079,60.78321 c 14.57084,-19.14204 23.21335,-43.06965 23.21335,-68.99718 0,-63.14027 -51.14078,-114.281036 -114.28107,-114.281036 -63.14026,0 -114.28105,51.140766 -114.28105,114.281036 z m 200.63468,134.70877 c -24.92754,15.99938 -54.5692,25.2847 -86.35363,25.2847 -88.35353,0 -159.99347,-71.63993 -159.99347,-159.99347 0,-88.35353 71.63994,-159.99346 159.99347,-159.99346 88.35355,0 159.99347,71.63993 159.99347,159.99346 0,40.06978 -14.71366,76.71116 -39.06982,104.78144 l 33.78432,40.56974 c 8.07109,9.71393 6.78546,24.14192 -2.92844,32.21302 -9.71388,8.07106 -24.14187,6.78544 -32.21297,-2.92848 l -33.28435,-39.92695 z"
     id="path1-5"
     style="stroke-width:0.714256" /></svg>
